<?xml version="1.0" encoding="UTF-8"?>
<svg id="Layer_1" xmlns="http://www.w3.org/2000/svg" version="1.1" viewBox="0 0 1632 640">
  <!-- Generator: Adobe Illustrator 30.1.0, SVG Export Plug-In . SVG Version: 2.1.1 Build 136)  -->
  <defs>
    <linearGradient id="logoGradient" x1="0%" y1="0%" x2="100%" y2="100%" gradientUnits="userSpaceOnUse">
      <stop offset="0%" style="stop-color:#4a5a6a;stop-opacity:1" />
      <stop offset="25%" style="stop-color:#6a8a7a;stop-opacity:1" />
      <stop offset="50%" style="stop-color:#8aa5c5;stop-opacity:1" />
      <stop offset="75%" style="stop-color:#c5a5a5;stop-opacity:1" />
      <stop offset="100%" style="stop-color:#8a8a8a;stop-opacity:1" />
    </linearGradient>
    <style>
      .st0 {
        fill: url(#logoGradient);
      }
    </style>
  </defs>
  <path class="st0" d="M838.92,65.28c-2.45-1.59,2.09-9.07,5.73-9.06l70.11.16c.38,3,.37,7.22-1.16,8.02-1.61.84-5.02,2.18-7.32,2.95-21.56,7.21-35.33,23.91-48.85,41.85l-51.07,100.75,98.23.32,47.21-91.66c6.88-18.38,19.61-39.88.15-53.35-2.76-1.91,2.27-9.04,6.36-9.03l132.08.17c9.78.01,17.85,6.58,22.36,14.1,7.48,15.05,8.18,30.56,4.83,47.14-5.65,33.01-20.24,61.68-38.4,92.58h134.61s44.71-84.94,44.71-84.94c7.43-14.12,11.62-28.32,13.54-44.03-1.29-7.49-4.5-11.81-10.47-16.17-1.61-3.56,5-8.88,9.96-8.88l78.46.05c1.91,8.56-4.81,9.22-10.81,11.86-18.45,8.12-32.98,23.42-43.51,41.17-19.41,32.73-35.46,65.95-53.16,100.63l61.4.7c4.5.05,9.92.16,14.09-.22,8.14-16.89,14.8-32.06,23.99-48.02,28.01-48.66,92.18-119.84,152.53-115.32,26.75,2,45.63,22.83,53.43,46.87l-32.83,78.47-15.8,37.58,118.07.38c1.78,0,4.83,2.72,4.62,4.13s-3.45,4.99-5.19,4.99l-1600.31.02c-1.54-1.34-3.26-5.43-2.12-6.37s4.96-2.85,6.58-2.85l325.61-.12,88.32-116.1,25.81-34.01,6.51-4.07c1.55-.97,6.64,1.65,6.85,3.26l-18.88,69.02-21.3,81.77,152.14.02,45.64-86.81c6.6-12.55,10.47-26.39,12.11-40.07.02-9.56-3.23-14.24-12.35-18.25.42-2.1,5.04-8.63,7.72-8.63l83.48.1c.41,6.63-4.06,9.38-9.22,10.4-18.71,8.28-31.55,22.86-44.13,39.19l-54.77,104.24,181.38-.16,46.08-91.9c5.65-11.26,8.81-22.71,9.46-35.25-1.56-8.19-4.69-12.57-12.48-17.64ZM1491.45,210.17l18.99-81c1.43-14.85,1.94-28.37,1.19-43.35-2.75-9.42-5.16-23.24-15.23-27.65-28.31-12.4-66.39,17.49-85.35,37.44-24.56,25.84-58.31,77.04-56.88,114.53l137.27.03ZM1084.52,79.82c-5.15-8.42-14.24-14.1-24.27-14.07l-53.19.17-35.17,67.59-38.91,76.62,115.81.04c19.79-28.58,55.36-98.26,35.72-130.35ZM401.6,199.01l16.21-59.55c-3.85-1.32-8.32.86-10.56,3.89l-49.5,66.93c15.91,1.81,39.79,3.66,43.85-11.27Z"/>
  <path class="st0" d="M913.74,491.36l15.65-127.57,6.33-46.49c.64-4.7-1-12.21-2.84-17.22l-32.83.06c-6.66.01-15.31,7.86-18.72,13.6-11.4,19.22-21.38,37.21-31.39,57.07l-59.34,117.7c-8.27,16.39-23.92,50.95-2.49,62.15.05,4.52-6.2,8.54-11.41,8.3-17.08-.77-33.32-1.44-50.29-.37-9.63.61-18.85.77-28.7.17,1.19-14.19,9.55-6.83,26.19-19.76,20-15.53,31.58-35.42,42.92-57.81l111.6-220.29c9.41-.93,17.47-.93,27.26-.53l-4.07,12.84c-1.1,3.49.66,10.37,2.74,13.13,5.87,7.82,43.84,4.43,57.72-1.41,34.37-14.47,30.96-32.07,64.47-22.73-17.47,15.28-35.73,25.58-57.52,33.49-4.4,25.36-7.47,49.6-10.03,74.82l-7.75,76.28c-1.66,16.3-.89,32.73-1.06,49.49-.23,23.18,8,48.69,33.01,53.23,1.55.28,2.34,5.41,1.28,6.34-6.68,5.83-36.76,3.47-47.97,2.92-12.9-.63-22.02-8.67-23.31-21.35-1.5-14.68-1.47-29.56.55-46.06Z"/>
  <path class="st0" d="M284.43,547.53c19.31-6.15,35.68-23.69,40.92-44.07l35.37-137.67c1.46-5.69-1.83-17.39-8.04-17.41l-82.78-.16c-10.19-.02-20.48,5.34-26.78,13.76l-88.77,118.68c-10.42,13.94-43.75,58.98-14.05,69.28.18,2.34-1.84,7.33-4.16,8.22-2.46.94-7.93.53-11.11.35-32.83-1.81-42.09,2.75-68.81-1.21,1.92-9.73,8.66-7.77,14.29-10.62,27.55-13.94,48.86-34.67,67.65-59.56l169.27-224.12c2.64-3.49,7.6-3.68,11.78-1.25l-22.78,30.16-33.92,46.52,106.26.57,21.33-79.05,32.37.85-61.06,232.88c-4.59,17.5-12,46.46,7.4,53.85,2.39.91,4.49,2.2,5.31,3.45,1.03,1.56-2.46,6.89-4.41,7.2-20.11,3.17-21.82-1.81-50.58.52-15.94,1.29-31.61.11-47.46-1.32.63-9.23,5.91-7.7,12.78-9.89Z"/>
  <path class="st0" d="M1219.39,385.17c.77-1.95,5.09-5.15,5.25-4.03,1.93,13.21-31.82,97.13-16.23,156.93,4.61,17.68,21.71,26.43,38.67,22.35,17.47-4.2,32.29-11.56,46.25-23.43,40.52-34.43,94.05-108.21,77.85-163.47-11.4-38.88-63.72-51.66-62.42-113.49l60.29-.08,29.33,32.4c36.9,40.76,19.67,90.63-1.51,134.61-24.66,51.2-73.3,110-125.87,133.38-18.59,8.27-39.56,12.51-58.79,6.31-23.82-7.68-38.88-30.52-42.83-55.03l50-126.44Z"/>
  <path class="st0" d="M778.53,263.79l-83.34,165c-30.18,59.76-75.24,121.48-142.64,138.15-22.7,5.61-45.15,5.19-67.09-1.88-24.11-7.77-38.41-29.86-36.63-55.68,1.33-19.34,6.39-38.51,15.13-56l30.01-60.08,23.72-45.44,44.05-87.14c8.72-1.19,17.05-1.2,27.39.39l-82.53,164.01c-12.17,24.19-19.79,49.99-19.02,76.32.69,23.44,15.58,41.13,37.68,45.45,50.64,9.89,93.01-21.37,121.95-59.89,18.48-24.6,33.54-50.07,47.46-77.7l72.8-144.47c1.08-2.14,3.57-4.31,5.12-5.14s7.02,1.94,5.93,4.09Z"/>
  <path class="st0" d="M1093.52,549.25c2.96,2.03-.69,9.96-5.66,9.97l-80.01.14c-2.11,0-3.85-5.12-2.91-6.05,9.78-9.55,11.79-1.89,27.65-15.17,17.85-14.96,28.58-33.16,39.33-53.74l117.03-224c9.36-.52,17.13-.44,26.86.53l-38.28,74.17-80,152.67c-7.57,14.45-13.48,28.59-14.23,44.73-.33,6.95,3.98,12.46,10.23,16.75Z"/>
</svg>
